<mxfile host="app.diagrams.net" modified="2023-10-21T21:21:16.933Z" agent="Mozilla/5.0 (Windows NT 10.0; Win64; x64; rv:109.0) Gecko/20100101 Firefox/118.0" etag="wFT8ivAr7csoHR91umfb" version="22.0.6" type="github">
  <diagram name="Page-1" id="sWqkfUj6m_CCeIlrbYhG">
    <mxGraphModel dx="1434" dy="820" grid="1" gridSize="10" guides="1" tooltips="1" connect="1" arrows="1" fold="1" page="1" pageScale="1" pageWidth="1169" pageHeight="827" math="0" shadow="0">
      <root>
        <mxCell id="0" />
        <mxCell id="1" parent="0" />
        <mxCell id="vdYmqRAd1pRQnadH-3AE-1" value="" style="rounded=0;whiteSpace=wrap;html=1;" vertex="1" parent="1">
          <mxGeometry x="100" y="290" width="460" height="160" as="geometry" />
        </mxCell>
        <mxCell id="vdYmqRAd1pRQnadH-3AE-2" value="" style="rounded=0;whiteSpace=wrap;html=1;" vertex="1" parent="1">
          <mxGeometry x="310" y="290" width="60" height="160" as="geometry" />
        </mxCell>
        <mxCell id="vdYmqRAd1pRQnadH-3AE-3" value="" style="rounded=0;whiteSpace=wrap;html=1;" vertex="1" parent="1">
          <mxGeometry x="370" y="340" width="530" height="60" as="geometry" />
        </mxCell>
      </root>
    </mxGraphModel>
  </diagram>
</mxfile>
